<svg version="1.2" xmlns="http://www.w3.org/2000/svg" viewBox="0 0 500 262" width="500" height="262">
	<title>no name logo</title>
	<style>
		.s0 { fill: #000000 } 
	</style>
	<path id="no name." class="s0" aria-label="no
name."  d="m36.1 119h25.4v-52.4l32.7 52.4h33.5v-84.8h-25.5v52l-32.7-52h-33.4zm96.9-42.5c0 26.6 17.9 43.7 51.1 43.7 33.2 0 51.1-17.1 51.1-43.7 0-26.5-17.9-43.6-51.1-43.6-33.2 0-51.1 17.1-51.1 43.6zm26.8 0c0-13.1 7.4-21.2 24.3-21.2 16.9 0 24.3 8.1 24.3 21.2 0 13.2-7.4 21.2-24.3 21.2-16.9 0-24.3-8-24.3-21.2zm-123.7 149.5h25.4v-52.5l32.7 52.5h33.5v-84.9h-25.5v52l-32.7-52h-33.4zm93.9 0h28.4l7-18.4h40.8l7.1 18.4h28.5l-34.2-84.8h-43.4zm43.1-38l9.8-25.2h6l9.8 25.2zm71.1 38h26.1v-57.5l23.6 45.2h18.8l22.4-44.3v56.6h26.1v-84.9h-36.6l-21.4 40.2-22.4-40.2h-36.6zm125.4 0h80v-21.2h-53.4v-12.7h44.4v-18.8h-44.4v-10.9h53.4v-21.2h-80zm84.2-12.4c0 8.5 4.9 13.4 13.3 13.4 8.3 0 13.3-4.9 13.3-13.4 0-8.3-5-13.3-13.3-13.3-8.4 0-13.3 5-13.3 13.3z"/>
</svg>